<svg xmlns="http://www.w3.org/2000/svg" width="189" height="189" viewBox="0 0 189 189">
  <g id="Group_817" data-name="Group 817" transform="translate(-343 -444)">
    <g id="Group_816" data-name="Group 816">
      <circle id="Ellipse_695" data-name="Ellipse 695" cx="94.5" cy="94.5" r="94.5" transform="translate(343 444)" fill="#fff"/>
      <g id="like" transform="translate(398 499.48)" style="isolation: isolate">
        <rect id="Base" width="79" height="79" transform="translate(0 -0.48)" fill="none"/>
        <path id="Path" d="M14.617,26.886A45.929,45.929,0,0,0,22.545,6.241a1.931,1.931,0,0,1,1.35-1.581c7.283-2.247,11.423,1.323,11.355,9.464-.013,1.58-.086,2.985-.242,5.133-.348,4.8-.32,6.107.219,6.988.518.847,2.2,1.136,6.177.383,1.255-.238,2.514-.507,3.909-.83.616-.143,5.05-1.221,6.183-1.465a18.928,18.928,0,0,1,5.078-.579c3.7.226,5.657,2.6,6,7.142.6,8-1.247,24.075-3.087,30-1.88,6.05-5.158,8.334-13.027,8.471q-7.589.133-23.38,0a18.775,18.775,0,0,1-7.3-1.553,9.49,9.49,0,0,0,.95-4.15v-30.8a9.51,9.51,0,0,0-2.113-5.982Z" transform="translate(9.294 2.543)" fill="#677ded" fill-rule="evenodd" style="mix-blend-mode: overlay;isolation: isolate"/>
        <path id="Path-2" data-name="Path" d="M9.843,18.118A5.809,5.809,0,0,0,4,23.891V54.683a5.809,5.809,0,0,0,5.843,5.774h3.9a5.809,5.809,0,0,0,5.843-5.774V23.891a5.809,5.809,0,0,0-5.843-5.774Z" transform="translate(2.543 11.52)" fill="#677ded" style="mix-blend-mode: overlay;isolation: isolate"/>
        <path id="Path-3" data-name="Path" d="M14.617,26.886A45.929,45.929,0,0,0,22.545,6.241a1.931,1.931,0,0,1,1.35-1.581c7.283-2.247,11.423,1.323,11.355,9.464-.013,1.58-.086,2.985-.242,5.133-.348,4.8-.32,6.107.219,6.988.518.847,2.2,1.136,6.177.383,1.255-.238,2.514-.507,3.909-.83.616-.143,5.05-1.221,6.183-1.465a18.928,18.928,0,0,1,5.078-.579c3.7.226,5.657,2.6,6,7.142.6,8-1.247,24.075-3.087,30-1.88,6.05-5.158,8.334-13.027,8.471q-7.589.133-23.38,0a18.775,18.775,0,0,1-7.3-1.553,9.49,9.49,0,0,0,.95-4.15v-30.8a9.51,9.51,0,0,0-2.113-5.982Z" transform="translate(9.293 2.543)" fill="#677ded" fill-rule="evenodd" style="mix-blend-mode: overlay;isolation: isolate"/>
      </g>
    </g>
  </g>
</svg>
